<?xml version="1.0" standalone="no"?>
<svg
  width="100"
  height="100"
  viewBox="0 0 600 600"
  xmlns="http://www.w3.org/2000/svg"
>
  <g transform="translate(300,300)">
    <path d="M135,-224.9C164.4,-191.2,170.4,-135.9,184.5,-89C198.5,-42.1,220.5,-3.6,220.6,35.4C220.6,74.3,198.7,113.8,168.6,143.2C138.6,172.5,100.3,191.8,61.6,197.6C22.9,203.4,-16.2,195.7,-52.3,182.9C-88.5,170.1,-121.7,152.2,-150.3,126.3C-178.8,100.4,-202.8,66.5,-221.2,23.9C-239.7,-18.7,-252.6,-70,-240.5,-115.4C-228.4,-160.8,-191.3,-200.3,-147,-227.2C-102.7,-254.2,-51.4,-268.6,0.7,-269.7C52.8,-270.8,105.6,-258.7,135,-224.9Z" fill="#d4aa2c" />
  </g>
</svg>
    