<?xml version="1.0" standalone="no"?>
<svg
  width="100"
  height="100"
  viewBox="0 0 600 600"
  xmlns="http://www.w3.org/2000/svg"
>
  <g transform="translate(300,300)">
    <path d="M89.8,-108.6C124.4,-98.5,165.8,-82.9,195.6,-49.8C225.4,-16.6,243.5,34.2,218.9,59.2C194.3,84.2,127.1,83.3,83.6,106.7C40,130,20,177.5,-0.4,178C-20.8,178.6,-41.5,132.2,-77.5,106.4C-113.5,80.6,-164.7,75.3,-176.3,53.9C-188,32.4,-160.1,-5.3,-145,-45.7C-129.9,-86.1,-127.5,-129.2,-105.5,-143.4C-83.5,-157.5,-41.7,-142.8,-7.1,-133.1C27.6,-123.4,55.3,-118.7,89.8,-108.6Z" fill="#d4aa2c" />
  </g>
</svg>
    